<?xml version="1.0" encoding="utf-8"?>
<!-- Generator: Adobe Illustrator 15.1.0, SVG Export Plug-In . SVG Version: 6.00 Build 0)  -->
<!DOCTYPE svg PUBLIC "-//W3C//DTD SVG 1.1//EN" "http://www.w3.org/Graphics/SVG/1.1/DTD/svg11.dtd">
<svg version="1.1" xmlns="http://www.w3.org/2000/svg" xmlns:xlink="http://www.w3.org/1999/xlink" x="0px" y="0px" width="1440px"
	 height="802px" viewBox="-315 28 1440 802" enable-background="new -315 28 1440 802" xml:space="preserve">
<g id="Capa_1">
	<path fill="#FF0066" d="M670,84c73.501,34.104,114.342,107.777,159.106,175.087c45.315,67.758,79.026,143.145,64.657,211.801
		C879.396,539.543,805.657,584.767,741,644c-65.21,59.232-109.869,136.604-190,154.105c-80.685,17.5-260.334-19.42-292-34.105
		c-30.874-14.318-137.263-65.157-204.132-113.62C-12,601.468-70.578,539.094-81.078,471.337
		C-91.579,404.026-54.552,331.332-8.132,268.51C38.843,205.688,85.367,143.45,155,108c70.184-35.45,152.236-51.513,239-56
		C480.764,47.511,597.054,49.897,670,84z"/>
</g>
<g id="Capa_2">
	<path fill="#FF0066" d="M-63.525,692.906c9.914,30.121-15.251,71.49-47.851,92.842c-32.409,21.353-72.444,22.687-100.85,3.241
		c-28.215-19.445-44.991-59.861-34.697-90.555c10.294-30.884,47.279-52.236,88.267-53.38
		C-117.858,643.72-73.248,662.784-63.525,692.906z"/>
</g>
<g id="Capa_3">
	<path fill="#FF0066" d="M1091.339,193.605c0,50.583-34.589,101.968-85.174,101.968c-50.384,0-116.963-51.384-116.963-101.968
		c0-50.584,66.579-100.169,116.963-100.169C1056.75,93.436,1091.339,143.021,1091.339,193.605z"/>
</g>
</svg>
