<?xml version="1.0" encoding="utf-8"?>
<!-- Generator: Adobe Illustrator 15.1.0, SVG Export Plug-In . SVG Version: 6.00 Build 0)  -->
<!DOCTYPE svg PUBLIC "-//W3C//DTD SVG 1.1//EN" "http://www.w3.org/Graphics/SVG/1.1/DTD/svg11.dtd">
<svg version="1.1" xmlns="http://www.w3.org/2000/svg" xmlns:xlink="http://www.w3.org/1999/xlink" x="0px" y="0px" width="1440px"
	 height="802px" viewBox="-315 28 1440 802" enable-background="new -315 28 1440 802" xml:space="preserve">
<g id="Capa_1">
	<path fill="#FF0066" d="M144.244,769.011C70.743,734.908,29.903,661.234-14.862,593.925
		c-45.315-67.758-79.026-143.145-64.657-211.8c14.368-68.655,88.106-113.88,152.764-173.112
		c65.21-59.232,109.869-136.604,190-154.105c80.685-17.5,260.334,19.42,292,34.105c30.874,14.318,137.263,65.157,204.132,113.62
		c66.868,48.912,125.446,111.285,135.946,179.043c10.501,67.31-26.526,140.004-72.946,202.827
		c-46.975,62.822-93.499,125.06-163.132,160.51c-70.184,35.45-152.236,51.513-239,56C333.481,805.5,217.191,803.114,144.244,769.011
		z"/>
</g>
<g id="Capa_2">
	<path fill="#FF0066" d="M-104.239,161.528c24.454,20.188,25.238,68.604,9.055,104.054c-16.021,35.35-49.173,57.835-83.572,56.542
		c-34.238-1.396-69.989-26.631-77.655-58.084c-7.768-31.614,12.124-69.404,46.183-92.237
		C-176.433,148.91-128.531,141.237-104.239,161.528z"/>
</g>
<g id="Capa_3">
	<path fill="#FF0066" d="M1093.927,740.896c-16.637,47.77-66.201,84.919-113.972,68.281c-47.581-16.57-93.556-86.993-76.919-134.763
		c16.637-47.771,95.819-72.699,143.4-56.128C1094.207,634.924,1110.564,693.127,1093.927,740.896z"/>
</g>
</svg>
